<svg xmlns="http://www.w3.org/2000/svg" viewBox="0 0 527.6 204.9"><defs><style>.cls-1,.cls-3{fill:#14426f;}.cls-2{fill:#fff;}.cls-3{fill-rule:evenodd;}</style></defs><g id="Layer_2" data-name="Layer 2"><g id="Layer_1-2" data-name="Layer 1"><path class="cls-1" d="M254.18,92.26a14.06,14.06,0,0,0-11.4-5.38c-3.28,0-7.21,1.44-7.21,5.25,0,9.43,33.16,1.44,33.16,25.68,0,16.26-15.73,21-29.37,21-8.9,0-18.74-2.23-25-8.65l11.93-13.25c3.67,4.47,8,7,13.9,7,4.45,0,8.91-1.18,8.91-4.58,0-10.23-33.17-1.57-33.17-25.82,0-15,13.38-21.5,26.74-21.5,8.39,0,17.7,2.1,23.6,8.39Z"/><rect class="cls-1" x="346.3" y="73.52" width="19.66" height="63.7"/><path class="cls-1" d="M393.67,73.52V63.42c0-8.38,3.15-10.35,9.44-10.35a18,18,0,0,1,6.42,1.31l.92-16.65a47.72,47.72,0,0,0-11.53-1.18c-21.37,0-24.91,11.8-24.91,25.69v75h19.66v-48"/><path class="cls-1" d="M392,89.24h24.86v48h19.66v-48h9.2l21.08,48.5-1.44,3.68c-2.76,6.93-4.2,10.74-13.11,10.74a22.25,22.25,0,0,1-9.18-2l-2.62,16.12a46.35,46.35,0,0,0,14.69,2.37c18.74,0,21.75-7.61,27-21.11l28.84-74H490.81l-14,42.07h-.26L460.14,73.52H436.55V63.42c0-8.38,3.15-10.35,9.44-10.35a18,18,0,0,1,6.42,1.31l.92-16.65a47.72,47.72,0,0,0-11.53-1.18c-21.37,0-24.91,11.8-24.91,25.69V73.52H392"/><path class="cls-1" d="M309.92,71.94c-8.92,0-16.52,5.37-19.53,10h-.26V73.52H272V167.1H291.7V130.4H292c4.46,6.16,12.06,8.39,20.19,8.39,18.09,0,29.09-16.25,29.09-33.95,0-19.26-12.44-32.9-31.32-32.9m-.25,48.36a15,15,0,1,1,15.05-15,15.05,15.05,0,0,1-15.05,15"/><path class="cls-1" d="M367.89,53A11.76,11.76,0,1,1,356.13,41.2,11.77,11.77,0,0,1,367.89,53"/><path class="cls-1" d="M527.6,79.92A6.66,6.66,0,1,1,521,73.45,6.51,6.51,0,0,1,527.6,79.92Zm-11.65,0a5,5,0,0,0,5,5.18A5,5,0,0,0,525.94,80a5,5,0,1,0-10,0Zm4,3.4h-1.5V76.84a14,14,0,0,1,2.49-.19,4,4,0,0,1,2.25.47,1.82,1.82,0,0,1,.63,1.42,1.66,1.66,0,0,1-1.34,1.5v.08a1.92,1.92,0,0,1,1.18,1.58,5.3,5.3,0,0,0,.47,1.62H522.5a6,6,0,0,1-.51-1.58c-.12-.71-.51-1-1.34-1h-.71Zm0-3.67h.71c.83,0,1.5-.28,1.5-1s-.44-1-1.38-1a3.47,3.47,0,0,0-.83.08Z"/></g><g id="Layer_2-2" data-name="Layer 2"><path class="cls-2" d="M202.9,102.45A100.46,100.46,0,1,1,102.44,2,100.46,100.46,0,0,1,202.9,102.45Z"/><path class="cls-1" d="M102.44,204.9A102.45,102.45,0,1,1,204.89,102.44,102.57,102.57,0,0,1,102.44,204.9ZM102.44,4a98.48,98.48,0,1,0,98.48,98.47A98.58,98.58,0,0,0,102.44,4Z"/><polygon class="cls-3" points="86 81.77 85.74 71.22 96.31 76.26 86 81.77"/><polygon class="cls-3" points="106.71 81.6 106.81 71.06 96.31 76.26 106.71 81.6"/><path class="cls-3" d="M126.2,82.51a5.27,5.27,0,0,1,1.09-3.82c-1.31-.22-2.68-.48-4.24-.81-7.58-1.64-10.56-3.4-11.12-4.72s-1.28-5.3-1-5.68a43.38,43.38,0,0,0,7.76-8.32A15.93,15.93,0,0,0,122,51.61c.35-3-.14-1.62.12-2.29l19-10.41c.88-.55,2.08-1,2.29-1.4.35-.71-.52-1.94-1.17-2.4-7.88.28-23.63,2.47-23.74,2.17-7.51-7.6-17.84-5.68-22.26-4.82C81.66,35.26,69.53,63,68.87,66.4c-.37,2-9.07,8.85-11.13,10.89s-4.83,4.35-6.9,9.22-4.54,31.23-5,34.73c-.29,2.42-3.75,10.92-4.26,13.1-.25,1.14-2,5.42-2.06,5.69,4.86.49,8.14-2.67,11.29-4.66.46-.3,3-2.34,4.6-1.67.11,4,6.29,12.33,6.72,14.37-.09.3-4,4.69-6.69,5.79s-3.63,1.74-5.95,2.53c-.1,1.16,14.55,5.94,14.87,6.38.39,2-1.92,7-1.55,8.34s9.74,9.08,26.86,8.88c5.43-.07,11.21-1.39,12-3.5s-8.63-4.91-8.8-6c4,1.63,10.92,2.4,14,1.88s7.74-.65,8-5.68c.14-1.94-12.56-8.08-13.51-9.11,1.64-2,12.88-17.42,15-27.12s.72-24.09.67-24.75c1.37.17.79.05,4.12-.14,1.08-.06,3.07-.32,5.43-.7C126.38,95.1,126.26,85.08,126.2,82.51ZM116.11,39.59c-.15-.5,22-2.83,24.67-2.83.12.06.16.13.12.22S118.72,50.15,109,49.64,118.06,45.81,116.11,39.59Zm-17.8-1.77c3.14,0,5.67,2.26,5.69,5s-2.49,5.07-5.6,5.1h-.05c-3.1,0-5.64-2.25-5.67-5S95.19,37.85,98.31,37.82Zm13.61,95.62c-3.38,9.64-18.5,26.12-24.21,25.41s-21.5-26.29-22-31.45,2.22-20.74,3.08-25.14,11-32.43,16.95-35.18c0,0,12-6.95,22.51,0,1.88,5.05,5.12,14.56,5.67,24.67s.69,15.74.38,18.64S115.3,123.78,111.92,133.44Z"/><path class="cls-3" d="M164.58,80.28c-1.58,0-3.88.25-5.24.26-.93,0-4.16,0-8.88-.09,1.28,2.8,2.88,8.49,4.28,14.91a62,62,0,0,0,7.17-5c3.18-2.76,6.1-5.43,6.28-7.91S166.82,80.3,164.58,80.28Z"/><path class="cls-1" d="M150.84,78.91a2.33,2.33,0,0,0-1.72-1.33c-2.9-.08-19-1-19.07-1h-.36a8.19,8.19,0,0,0-6.21,2.11,10,10,0,0,0-2.7,7.65c0,3.5.43,30.59.55,32.88s3.16,3.13,4.76,3.34c.16,2.77.3,3.83.5,4.17,1,1.74,11.74,2.61,17,2.56h0c8.24-.06,13.16-1.61,14.61-4.62C161.45,117.87,154.24,84.52,150.84,78.91Zm-28,7.38a8.13,8.13,0,0,1,2.07-6.12c.19-.17.4-.34.61-.5a8.41,8.41,0,0,0-.37,2.86c0,1,0,3,.09,5.72.12,8,.23,14.3.35,19.36l-2.42,0C123,99,122.87,88.35,122.85,86.29Zm.37,24.31,2.44,0c0,.82,0,1.58.06,2.31l-2.45,0C123.25,112.18,123.23,111.42,123.22,110.6Zm.2,8.51c0-.4-.06-1.55-.09-3.23h2.48c.06,1.79.12,3.3.17,4.57C124.73,120.22,123.46,119.74,123.42,119.11Zm3.9-30.89c0-2.71-.07-4.76-.09-5.75a4.39,4.39,0,0,1,.86-3.15,2.34,2.34,0,0,1,1.64-.67h.16c.64,0,15.56.88,18.94,1,1.6,1.7,5.58,17.17,7.33,29.52l-28.45.22C127.54,101.6,127.39,93,127.32,88.22Zm.48,24.51,28.78-.23c.07.66.15,1.32.2,2l-28.93.22C127.83,114.05,127.82,113.39,127.8,112.73Zm28.53,11c-1,2.13-5.68,3.41-12.75,3.47s-13.77-1.1-15.19-1.66c-.15-1-.29-3.8-.43-7.54l29-.22C157.07,120.48,156.89,122.6,156.33,123.75Z"/><ellipse class="cls-1" cx="98.42" cy="42.88" rx="4.05" ry="3.4"/></g></g></svg>